<mxfile host="65bd71144e">
    <diagram id="Btb2WLoOVrugXf3QV6XN" name="Setup of the project">
        <mxGraphModel dx="1205" dy="727" grid="0" gridSize="10" guides="1" tooltips="1" connect="1" arrows="1" fold="1" page="1" pageScale="1" pageWidth="827" pageHeight="1169" background="#ffffff" math="0" shadow="0">
            <root>
                <mxCell id="0"/>
                <mxCell id="1" parent="0"/>
                <mxCell id="20" value="&lt;font size=&quot;1&quot; style=&quot;&quot; color=&quot;#0d0d0d&quot;&gt;&lt;b style=&quot;&quot;&gt;Telegram bot&lt;/b&gt;&lt;/font&gt;" style="shape=umlActor;verticalLabelPosition=bottom;verticalAlign=top;html=1;outlineConnect=0;fillColor=#b0e3e6;strokeColor=#0e8088;sketch=1;curveFitting=1;jiggle=2;gradientColor=default;" parent="1" vertex="1">
                    <mxGeometry x="600" y="269" width="30" height="60" as="geometry"/>
                </mxCell>
                <mxCell id="22" value="Website" style="swimlane;whiteSpace=wrap;html=1;fillColor=#fa6800;strokeColor=#C73500;sketch=1;curveFitting=1;jiggle=2;gradientDirection=south;swimlaneFillColor=none;fontColor=#000000;gradientColor=#EDEDED;" parent="1" vertex="1">
                    <mxGeometry x="90" y="55" width="170" height="115" as="geometry">
                        <mxRectangle x="90" y="55" width="90" height="30" as="alternateBounds"/>
                    </mxGeometry>
                </mxCell>
                <mxCell id="11" value="&lt;font style=&quot;font-size: 10px;&quot; color=&quot;#030303&quot;&gt;Nieuws pagina&lt;/font&gt;" style="rounded=0;whiteSpace=wrap;html=1;fillColor=#FFCC99;fontStyle=1;sketch=1;curveFitting=1;jiggle=2;gradientColor=#FAFAFA;strokeColor=#FFCC99;" parent="22" vertex="1">
                    <mxGeometry x="20" y="35" width="130" height="30" as="geometry"/>
                </mxCell>
                <mxCell id="23" value="&lt;font color=&quot;#030303&quot; style=&quot;font-size: 10px;&quot;&gt;Inschrijfformulier pagina&lt;/font&gt;" style="rounded=0;whiteSpace=wrap;html=1;fillColor=#FFCC99;fontSize=12;fontStyle=1;sketch=1;curveFitting=1;jiggle=2;gradientColor=#F2F2F2;strokeColor=#FFCC99;" parent="22" vertex="1">
                    <mxGeometry x="20" y="75" width="130" height="30" as="geometry"/>
                </mxCell>
                <mxCell id="c-toH_A7TmxNrjQhJg11-41" value="&lt;font color=&quot;#050505&quot;&gt;Python scripts&lt;/font&gt;" style="swimlane;whiteSpace=wrap;html=1;fontColor=#ffffff;fillColor=#76608a;strokeColor=#432D57;sketch=1;curveFitting=1;jiggle=2;rounded=0;gradientColor=#F5F5F5;" parent="1" vertex="1">
                    <mxGeometry x="310" y="55" width="170" height="115" as="geometry">
                        <mxRectangle x="90" y="55" width="90" height="30" as="alternateBounds"/>
                    </mxGeometry>
                </mxCell>
                <mxCell id="c-toH_A7TmxNrjQhJg11-42" value="&lt;p style=&quot;line-height: 110%; font-size: 7px;&quot;&gt;&lt;font style=&quot;font-size: 7px;&quot; color=&quot;#030303&quot;&gt;&lt;b style=&quot;font-size: 7px;&quot;&gt;web_scraping.py &lt;br style=&quot;font-size: 7px;&quot;&gt;&lt;/b&gt;A script that checks if there is a new post on the website and notifies me if there is.&lt;/font&gt;&lt;/p&gt;" style="rounded=0;whiteSpace=wrap;html=1;fillColor=#e3c800;fontColor=#000000;strokeColor=#B09500;align=center;fontSize=7;spacing=2;sketch=1;curveFitting=1;jiggle=2;gradientColor=#F5F5F5;" parent="c-toH_A7TmxNrjQhJg11-41" vertex="1">
                    <mxGeometry x="20" y="35" width="130" height="30" as="geometry"/>
                </mxCell>
                <mxCell id="c-toH_A7TmxNrjQhJg11-43" value="&lt;p style=&quot;line-height: 56%;&quot;&gt;&lt;font style=&quot;font-size: 7px;&quot;&gt;&lt;b style=&quot;color: rgb(3, 3, 3);&quot;&gt;web_scraping.py&lt;br&gt;&lt;/b&gt;&lt;span style=&quot;color: rgb(3, 3, 3);&quot;&gt;A script that checks if there is a new post on the website and notifies me if there is.&lt;/span&gt;&lt;/font&gt;&lt;br&gt;&lt;/p&gt;" style="rounded=0;whiteSpace=wrap;html=1;fillColor=#fa6800;fontColor=#000000;strokeColor=#C73500;sketch=1;curveFitting=1;jiggle=2;gradientColor=#FFFFFF;" parent="c-toH_A7TmxNrjQhJg11-41" vertex="1">
                    <mxGeometry x="20" y="75" width="130" height="30" as="geometry"/>
                </mxCell>
                <mxCell id="24" value="" style="edgeStyle=none;sketch=1;hachureGap=4;jiggle=2;curveFitting=1;html=1;fontFamily=Architects Daughter;fontSource=https%3A%2F%2Ffonts.googleapis.com%2Fcss%3Ffamily%3DArchitects%2BDaughter;fontSize=16;" parent="1" source="sVYA-P_zk5SEsgUEzxAb-44" target="sVYA-P_zk5SEsgUEzxAb-58" edge="1">
                    <mxGeometry relative="1" as="geometry"/>
                </mxCell>
                <mxCell id="sVYA-P_zk5SEsgUEzxAb-44" value="&lt;font color=&quot;#0d0d0d&quot;&gt;Cronjobs&lt;/font&gt;" style="swimlane;whiteSpace=wrap;html=1;fontColor=#ffffff;fillColor=#647687;strokeColor=#83B3E0;sketch=1;curveFitting=1;jiggle=2;gradientColor=#F5F5F5;" parent="1" vertex="1">
                    <mxGeometry x="530" y="55" width="170" height="115" as="geometry">
                        <mxRectangle x="90" y="55" width="90" height="30" as="alternateBounds"/>
                    </mxGeometry>
                </mxCell>
                <mxCell id="sVYA-P_zk5SEsgUEzxAb-45" value="&lt;font size=&quot;1&quot; color=&quot;#030303&quot;&gt;&lt;span style=&quot;&quot;&gt;every minute on a Pi both scripts are ran and, if a difference is found to the original, an output is generated.&lt;/span&gt;&lt;/font&gt;" style="rounded=0;whiteSpace=wrap;html=1;fillColor=#E3DDD6;strokeColor=#666666;fontStyle=0;sketch=1;curveFitting=1;jiggle=2;gradientColor=#F5F5F5;" parent="sVYA-P_zk5SEsgUEzxAb-44" vertex="1">
                    <mxGeometry x="14" y="35" width="144" height="65" as="geometry"/>
                </mxCell>
                <mxCell id="sVYA-P_zk5SEsgUEzxAb-51" style="edgeStyle=none;html=1;entryX=1;entryY=0.5;entryDx=0;entryDy=0;strokeColor=#050505;strokeWidth=2;fontSize=10;fontColor=#5498F0;fillColor=#6d8764;sketch=1;curveFitting=1;jiggle=2;" parent="1" source="c-toH_A7TmxNrjQhJg11-42" target="11" edge="1">
                    <mxGeometry relative="1" as="geometry"/>
                </mxCell>
                <mxCell id="sVYA-P_zk5SEsgUEzxAb-53" style="edgeStyle=none;html=1;entryX=1;entryY=0.5;entryDx=0;entryDy=0;strokeColor=#050505;strokeWidth=2;fontSize=10;fontColor=#5498F0;fillColor=#6d8764;sketch=1;curveFitting=1;jiggle=2;" parent="1" source="c-toH_A7TmxNrjQhJg11-43" target="23" edge="1">
                    <mxGeometry relative="1" as="geometry"/>
                </mxCell>
                <mxCell id="sVYA-P_zk5SEsgUEzxAb-55" style="edgeStyle=none;html=1;strokeColor=#050505;strokeWidth=2;fontSize=10;fontColor=#5498F0;fillColor=#6d8764;sketch=1;curveFitting=1;jiggle=2;" parent="1" edge="1">
                    <mxGeometry relative="1" as="geometry">
                        <mxPoint x="614" y="216" as="targetPoint"/>
                        <mxPoint x="615" y="160" as="sourcePoint"/>
                    </mxGeometry>
                </mxCell>
                <mxCell id="sVYA-P_zk5SEsgUEzxAb-57" value="&lt;font color=&quot;#0c0d0d&quot; style=&quot;font-size: 9px;&quot;&gt;Helaas nog geen nieuws&lt;/font&gt;" style="shape=callout;whiteSpace=wrap;html=1;perimeter=calloutPerimeter;fontSize=9;fontColor=#000000;fillColor=#e3c800;position2=0.71;size=20;position=0.43;strokeColor=#B09500;sketch=1;curveFitting=1;jiggle=2;gradientColor=#F2F2F2;" parent="1" vertex="1">
                    <mxGeometry x="536" y="220" width="70" height="60" as="geometry"/>
                </mxCell>
                <mxCell id="sVYA-P_zk5SEsgUEzxAb-58" value="&lt;font color=&quot;#0c0d0d&quot; style=&quot;font-size: 9px;&quot;&gt;Er is nieuws!&lt;/font&gt;" style="shape=callout;whiteSpace=wrap;html=1;perimeter=calloutPerimeter;fontSize=9;fontColor=#000000;fillColor=#e3c800;position2=0.43;size=20;position=0.43;strokeColor=#B09500;sketch=1;curveFitting=1;jiggle=2;gradientColor=#F2F2F2;" parent="1" vertex="1">
                    <mxGeometry x="620" y="220" width="70" height="60" as="geometry"/>
                </mxCell>
                <mxCell id="sVYA-P_zk5SEsgUEzxAb-63" style="edgeStyle=none;html=1;strokeColor=#050505;strokeWidth=2;fontSize=10;fontColor=#0c0d0d;fillColor=#6d8764;entryX=0;entryY=0.5;entryDx=0;entryDy=0;sketch=1;curveFitting=1;jiggle=2;" parent="1" source="c-toH_A7TmxNrjQhJg11-42" target="sVYA-P_zk5SEsgUEzxAb-45" edge="1">
                    <mxGeometry relative="1" as="geometry">
                        <mxPoint x="540" y="105" as="targetPoint"/>
                    </mxGeometry>
                </mxCell>
                <mxCell id="sVYA-P_zk5SEsgUEzxAb-64" style="edgeStyle=none;shape=connector;rounded=1;html=1;entryX=0;entryY=0.5;entryDx=0;entryDy=0;labelBackgroundColor=default;strokeColor=#050505;strokeWidth=2;fontFamily=Helvetica;fontSize=10;fontColor=#0c0d0d;endArrow=classic;fillColor=#6d8764;sketch=1;curveFitting=1;jiggle=2;" parent="1" source="c-toH_A7TmxNrjQhJg11-43" target="sVYA-P_zk5SEsgUEzxAb-45" edge="1">
                    <mxGeometry relative="1" as="geometry">
                        <mxPoint x="550" y="145" as="targetPoint"/>
                    </mxGeometry>
                </mxCell>
                <mxCell id="sVYA-P_zk5SEsgUEzxAb-71" value="&lt;font style=&quot;font-size: 9px;&quot; color=&quot;#0c0d0d&quot;&gt;De nieuwe fase met nieuwe huizen staat online en je bent ingeschreven!&lt;/font&gt;" style="shape=callout;whiteSpace=wrap;html=1;perimeter=calloutPerimeter;fontSize=10;fontColor=#ffffff;fillColor=#FA9237;position2=0.5;size=20;position=0.43;strokeColor=#6F0000;direction=west;flipH=1;sketch=1;curveFitting=1;jiggle=2;gradientColor=#F5F5F5;" parent="1" vertex="1">
                    <mxGeometry x="532" y="357" width="159" height="60" as="geometry"/>
                </mxCell>
            </root>
        </mxGraphModel>
    </diagram>
</mxfile>